<?xml version="1.0" standalone="no"?>
<!DOCTYPE svg PUBLIC "-//W3C//DTD SVG 20010904//EN"
 "http://www.w3.org/TR/2001/REC-SVG-20010904/DTD/svg10.dtd">
<svg version="1.0" xmlns="http://www.w3.org/2000/svg"
 width="80.000000px" height="80.000000px" viewBox="0 0 80.000000 80.000000"
 preserveAspectRatio="xMidYMid meet">
<metadata>
Created by potrace 1.15, written by Peter Selinger 2001-2017
</metadata>
<g transform="translate(0.000000,80.000000) scale(0.005,-0.005)"
fill="#000000" stroke="none">
<path d="M2421 15033 c-66 -24 -153 -114 -180 -186 l-21 -58 0 -4314 0 -4315
-665 0 c-641 0 -666 -1 -718 -20 -76 -29 -130 -79 -169 -158 l-33 -67 0 -710
c0 -707 0 -710 22 -757 30 -66 96 -133 162 -165 l56 -28 513 -3 512 -3 0
-1217 c1 -1315 0 -1293 54 -1437 116 -306 415 -515 736 -515 118 0 192 13 291
51 239 92 418 294 491 554 l22 80 4 1243 3 1242 4439 0 4440 0 2 -1262 3
-1263 24 -70 c120 -357 411 -575 766 -575 303 0 577 171 711 445 85 174 78 53
82 1467 l2 1257 513 3 512 3 56 26 c68 32 120 82 157 152 l27 52 0 720 0 720
-22 48 c-31 67 -110 141 -178 166 -54 20 -74 21 -579 21 l-524 0 5 43 c4 32
-182 833 -806 3472 -451 1909 -821 3452 -833 3479 -44 95 -145 168 -252 181
-37 5 -72 1 -126 -14 -41 -11 -399 -97 -795 -191 -396 -94 -741 -177 -767
-186 -59 -19 -142 -92 -172 -152 l-23 -46 -5 85 c-6 104 -34 166 -108 232 -97
88 -16 82 -1127 85 l-983 3 -2 827 -3 827 -26 56 c-32 68 -82 120 -152 157
l-52 27 -2620 2 c-2358 1 -2624 0 -2664 -14z m2339 -4748 l0 -4125 -950 0
-950 0 0 4125 0 4125 950 0 950 0 0 -4125z m2540 0 l0 -4125 -950 0 -950 0 0
4125 0 4125 950 0 950 0 0 -4125z m4564 1957 c50 -213 92 -396 95 -407 3 -14
-9 -7 -45 26 -67 62 -148 92 -229 86 -74 -6 -406 -81 -460 -105 -57 -24 -134
-99 -161 -156 l-23 -49 -10 39 c-27 101 -172 736 -169 739 4 5 879 213 898
214 12 1 35 -86 104 -387z m-944 -2892 c412 -1747 750 -3179 750 -3183 0 -4
-340 -7 -755 -7 l-755 0 1 3193 c0 1755 2 3188 4 3182 2 -5 342 -1439 755
-3185z m-1400 -20 l0 -3170 -790 0 -790 0 0 3170 0 3170 790 0 790 0 0 -3170z
m2970 245 c259 -1100 474 -2009 477 -2020 5 -19 5 -19 -18 1 -67 61 -211 93
-291 65 -18 -6 -114 -30 -213 -52 -99 -23 -197 -50 -218 -60 -54 -28 -115 -92
-142 -150 -20 -44 -23 -47 -28 -27 -3 13 -213 905 -467 1983 -254 1078 -464
1971 -467 1984 -6 22 -5 22 37 -8 50 -36 126 -61 185 -61 50 0 425 84 480 108
83 35 185 160 185 226 0 11 2 17 4 15 2 -2 216 -904 476 -2004z m645 -2722
c47 -194 86 -363 88 -374 2 -20 -24 -28 -453 -129 -250 -60 -456 -107 -456
-107 -1 1 -38 163 -83 359 -46 196 -85 366 -88 378 -5 20 -1 18 40 -13 48 -37
84 -51 152 -62 50 -7 476 84 545 117 58 28 123 96 146 153 11 24 20 41 21 37
2 -4 41 -166 88 -359z m1465 -1648 l0 -315 -6665 0 -6665 0 0 315 0 315 6665
0 6665 0 0 -315z m-11750 -2167 c0 -1193 0 -1214 -20 -1246 -58 -95 -204 -97
-262 -3 l-23 36 -3 1213 -2 1212 155 0 155 0 0 -1212z m10480 4 c0 -1156 -1
-1209 -19 -1242 -27 -52 -62 -73 -128 -78 -48 -3 -64 0 -93 20 -75 51 -70 -49
-70 1301 l0 1207 155 0 155 0 0 -1208z"/>
<path d="M3345 13767 c-61 -24 -93 -47 -138 -97 -139 -155 -92 -399 97 -498
l51 -27 430 0 430 0 64 35 c236 128 226 452 -18 572 -45 23 -52 23 -466 25
-307 1 -428 -1 -450 -10z"/>
<path d="M3336 7415 c-95 -36 -178 -131 -202 -232 -34 -140 38 -291 170 -361
l51 -27 425 0 425 0 68 33 c240 119 233 462 -12 576 -44 20 -60 21 -466 23
-346 2 -427 -1 -459 -12z"/>
<path d="M5872 13764 c-59 -22 -146 -104 -178 -170 -33 -68 -37 -163 -11 -241
23 -66 94 -146 161 -181 l51 -27 430 0 430 0 64 35 c236 128 226 452 -18 572
-45 23 -52 23 -466 25 -355 2 -427 -1 -463 -13z"/>
<path d="M5877 7415 c-84 -31 -171 -120 -198 -204 -18 -53 -16 -149 5 -208 22
-66 93 -146 160 -181 l51 -27 425 0 425 0 56 26 c69 33 127 89 160 155 20 40
24 64 24 134 0 73 -4 93 -28 142 -32 65 -89 121 -156 152 -44 20 -60 21 -466
23 -343 2 -427 -1 -458 -12z"/>
<path d="M8454 11871 c-146 -37 -248 -167 -248 -317 -1 -128 70 -235 194 -293
52 -25 64 -26 250 -29 298 -6 382 13 469 100 67 68 86 118 86 223 0 74 -4 98
-23 137 -31 63 -91 121 -160 155 l-57 28 -240 2 c-132 1 -254 -2 -271 -6z"/>
<path d="M8417 7415 c-85 -32 -156 -101 -193 -190 -22 -54 -23 -157 -1 -222
23 -66 94 -146 161 -181 l51 -27 270 0 c267 0 271 0 320 25 73 36 138 105 165
176 18 48 21 73 18 134 -7 121 -69 215 -176 267 l-57 28 -260 2 c-204 2 -268
-1 -298 -12z"/>
</g>
</svg>
